<svg xmlns="http://www.w3.org/2000/svg" xmlns:xlink="http://www.w3.org/1999/xlink" width="165" zoomAndPan="magnify" viewBox="0 0 123.75 30.000001" height="40" preserveAspectRatio="xMidYMid meet" version="1.0"><defs><g/><clipPath id="40bebba754"><path d="M 1.875 4 L 57 4 L 57 27 L 1.875 27 Z M 1.875 4 " clip-rule="nonzero"/></clipPath><clipPath id="0e77f4baf3"><path d="M 32.679688 44.453125 L 1.855469 13.628906 L 30.902344 -15.414062 L 61.726562 15.410156 Z M 32.679688 44.453125 " clip-rule="nonzero"/></clipPath><clipPath id="c77e7cff70"><path d="M 32.679688 44.453125 L 1.855469 13.628906 L 30.902344 -15.414062 L 61.726562 15.410156 Z M 32.679688 44.453125 " clip-rule="nonzero"/></clipPath><clipPath id="e0e29d22e1"><path d="M 33.558594 10 L 39 10 L 39 19 L 33.558594 19 Z M 33.558594 10 " clip-rule="nonzero"/></clipPath><clipPath id="fadd58718f"><path d="M 44 10 L 49.964844 10 L 49.964844 19 L 44 19 Z M 44 10 " clip-rule="nonzero"/></clipPath><clipPath id="6a6af0c47d"><path d="M 39 8.789062 L 45 8.789062 L 45 20.285156 L 39 20.285156 Z M 39 8.789062 " clip-rule="nonzero"/></clipPath><clipPath id="2734010261"><path d="M 80.886719 9 L 84 9 L 84 14 L 80.886719 14 Z M 80.886719 9 " clip-rule="nonzero"/></clipPath><clipPath id="2e3073485c"><path d="M 86 9 L 88.871094 9 L 88.871094 14 L 86 14 Z M 86 9 " clip-rule="nonzero"/></clipPath><clipPath id="72e50902ae"><path d="M 83 8.835938 L 87 8.835938 L 87 14.640625 L 83 14.640625 Z M 83 8.835938 " clip-rule="nonzero"/></clipPath></defs><g clip-path="url(#40bebba754)"><g clip-path="url(#0e77f4baf3)"><g clip-path="url(#c77e7cff70)"><path fill="#2196f3" d="M 30.75 22.464844 C 31.058594 22.503906 31.320312 22.714844 31.421875 23.011719 C 31.519531 23.304688 31.445312 23.632812 31.226562 23.851562 L 28.769531 26.308594 L 46.078125 25.742188 C 51.578125 25.5625 55.945312 21.113281 56.023438 15.609375 C 56.097656 10.074219 51.828125 5.503906 46.300781 5.203125 L 24.695312 4.027344 L 28.621094 8.542969 C 28.816406 8.765625 28.875 9.082031 28.769531 9.363281 C 28.664062 9.644531 28.417969 9.84375 28.121094 9.886719 L 1.90625 13.675781 L 22.148438 16.589844 C 22.472656 16.636719 22.738281 16.875 22.820312 17.191406 C 22.90625 17.507812 22.792969 17.84375 22.53125 18.046875 L 18.796875 20.949219 Z M 30.75 22.464844 " fill-opacity="1" fill-rule="nonzero"/></g></g></g><g clip-path="url(#e0e29d22e1)"><path fill="#ffffff" d="M 37.707031 18.628906 C 37.464844 18.628906 37.304688 18.546875 37.144531 18.386719 L 33.917969 15.160156 C 33.59375 14.839844 33.59375 14.355469 33.917969 14.03125 L 37.144531 10.804688 C 37.464844 10.480469 37.949219 10.480469 38.273438 10.804688 C 38.597656 11.128906 38.597656 11.613281 38.273438 11.933594 L 35.613281 14.597656 L 38.273438 17.257812 C 38.597656 17.582031 38.597656 18.0625 38.273438 18.386719 C 38.113281 18.546875 37.949219 18.628906 37.707031 18.628906 Z M 37.707031 18.628906 " fill-opacity="1" fill-rule="nonzero"/></g><g clip-path="url(#fadd58718f)"><path fill="#ffffff" d="M 45.773438 18.628906 C 45.53125 18.628906 45.371094 18.546875 45.210938 18.386719 C 44.886719 18.0625 44.886719 17.582031 45.210938 17.257812 L 47.871094 14.597656 L 45.210938 11.933594 C 44.886719 11.613281 44.886719 11.128906 45.210938 10.804688 C 45.53125 10.480469 46.015625 10.480469 46.339844 10.804688 L 49.566406 14.03125 C 49.886719 14.355469 49.886719 14.839844 49.566406 15.160156 L 46.339844 18.386719 C 46.179688 18.546875 46.015625 18.628906 45.773438 18.628906 Z M 45.773438 18.628906 " fill-opacity="1" fill-rule="nonzero"/></g><g clip-path="url(#6a6af0c47d)"><path fill="#ffffff" d="M 40.128906 20.242188 C 40.046875 20.242188 39.96875 20.242188 39.886719 20.160156 C 39.484375 20 39.242188 19.597656 39.402344 19.113281 L 42.628906 9.433594 C 42.789062 9.03125 43.195312 8.789062 43.675781 8.949219 C 44.082031 9.109375 44.324219 9.515625 44.160156 10 L 40.933594 19.675781 C 40.773438 20 40.449219 20.242188 40.128906 20.242188 Z M 40.128906 20.242188 " fill-opacity="1" fill-rule="nonzero"/></g><g clip-path="url(#2734010261)"><path fill="#ffffff" d="M 82.898438 13.601562 C 82.78125 13.601562 82.703125 13.5625 82.625 13.484375 L 81.0625 11.921875 C 80.90625 11.765625 80.90625 11.53125 81.0625 11.375 L 82.625 9.8125 C 82.78125 9.65625 83.015625 9.65625 83.171875 9.8125 C 83.328125 9.96875 83.328125 10.203125 83.171875 10.359375 L 81.882812 11.648438 L 83.171875 12.9375 C 83.328125 13.09375 83.328125 13.328125 83.171875 13.484375 C 83.09375 13.5625 83.015625 13.601562 82.898438 13.601562 Z M 82.898438 13.601562 " fill-opacity="1" fill-rule="nonzero"/></g><g clip-path="url(#2e3073485c)"><path fill="#ffffff" d="M 86.804688 13.601562 C 86.6875 13.601562 86.609375 13.5625 86.53125 13.484375 C 86.375 13.328125 86.375 13.09375 86.53125 12.9375 L 87.820312 11.648438 L 86.53125 10.359375 C 86.375 10.203125 86.375 9.96875 86.53125 9.8125 C 86.6875 9.65625 86.921875 9.65625 87.078125 9.8125 L 88.640625 11.375 C 88.796875 11.53125 88.796875 11.765625 88.640625 11.921875 L 87.078125 13.484375 C 87 13.5625 86.921875 13.601562 86.804688 13.601562 Z M 86.804688 13.601562 " fill-opacity="1" fill-rule="nonzero"/></g><g clip-path="url(#72e50902ae)"><path fill="#ffffff" d="M 84.070312 14.382812 C 84.03125 14.382812 83.992188 14.382812 83.953125 14.34375 C 83.757812 14.265625 83.640625 14.070312 83.71875 13.835938 L 85.28125 9.148438 C 85.359375 8.953125 85.554688 8.835938 85.789062 8.914062 C 85.984375 8.992188 86.101562 9.1875 86.023438 9.421875 L 84.460938 14.109375 C 84.382812 14.265625 84.226562 14.382812 84.070312 14.382812 Z M 84.070312 14.382812 " fill-opacity="1" fill-rule="nonzero"/></g><g fill="#000000" fill-opacity="1"><g transform="translate(59.581516, 15.411432)"><g><path d="M 4.125 -6.265625 C 3.519531 -6.265625 3.054688 -6.039062 2.734375 -5.59375 C 2.410156 -5.144531 2.25 -4.519531 2.25 -3.71875 C 2.25 -2.050781 2.875 -1.21875 4.125 -1.21875 C 4.644531 -1.21875 5.28125 -1.347656 6.03125 -1.609375 L 6.03125 -0.28125 C 5.414062 -0.0195312 4.726562 0.109375 3.96875 0.109375 C 2.882812 0.109375 2.050781 -0.21875 1.46875 -0.875 C 0.894531 -1.539062 0.609375 -2.492188 0.609375 -3.734375 C 0.609375 -4.515625 0.75 -5.195312 1.03125 -5.78125 C 1.3125 -6.363281 1.71875 -6.8125 2.25 -7.125 C 2.78125 -7.4375 3.40625 -7.59375 4.125 -7.59375 C 4.851562 -7.59375 5.582031 -7.414062 6.3125 -7.0625 L 5.796875 -5.78125 C 5.515625 -5.90625 5.234375 -6.015625 4.953125 -6.109375 C 4.671875 -6.210938 4.394531 -6.265625 4.125 -6.265625 Z M 4.125 -6.265625 "/></g></g></g><g fill="#000000" fill-opacity="1"><g transform="translate(66.259114, 15.411432)"><g><path d="M 7.734375 -3.75 C 7.734375 -2.507812 7.425781 -1.554688 6.8125 -0.890625 C 6.195312 -0.222656 5.316406 0.109375 4.171875 0.109375 C 3.023438 0.109375 2.144531 -0.222656 1.53125 -0.890625 C 0.914062 -1.554688 0.609375 -2.515625 0.609375 -3.765625 C 0.609375 -5.003906 0.914062 -5.953125 1.53125 -6.609375 C 2.144531 -7.273438 3.03125 -7.609375 4.1875 -7.609375 C 5.332031 -7.609375 6.207031 -7.273438 6.8125 -6.609375 C 7.425781 -5.941406 7.734375 -4.988281 7.734375 -3.75 Z M 2.265625 -3.75 C 2.265625 -2.914062 2.421875 -2.285156 2.734375 -1.859375 C 3.054688 -1.441406 3.535156 -1.234375 4.171875 -1.234375 C 5.441406 -1.234375 6.078125 -2.070312 6.078125 -3.75 C 6.078125 -5.4375 5.445312 -6.28125 4.1875 -6.28125 C 3.550781 -6.28125 3.070312 -6.066406 2.75 -5.640625 C 2.425781 -5.210938 2.265625 -4.582031 2.265625 -3.75 Z M 2.265625 -3.75 "/></g></g></g><g fill="#000000" fill-opacity="1"><g transform="translate(74.599714, 15.411432)"><g><path d="M 7.15625 -3.8125 C 7.15625 -2.582031 6.800781 -1.640625 6.09375 -0.984375 C 5.394531 -0.328125 4.382812 0 3.0625 0 L 0.9375 0 L 0.9375 -7.484375 L 3.296875 -7.484375 C 4.515625 -7.484375 5.460938 -7.160156 6.140625 -6.515625 C 6.816406 -5.867188 7.15625 -4.96875 7.15625 -3.8125 Z M 5.5 -3.765625 C 5.5 -5.378906 4.789062 -6.1875 3.375 -6.1875 L 2.53125 -6.1875 L 2.53125 -1.3125 L 3.203125 -1.3125 C 4.734375 -1.3125 5.5 -2.128906 5.5 -3.765625 Z M 5.5 -3.765625 "/></g></g></g><g fill="#000000" fill-opacity="1"><g transform="translate(82.356984, 15.411432)"><g><path d="M 5.25 0 L 0.9375 0 L 0.9375 -7.484375 L 5.25 -7.484375 L 5.25 -6.1875 L 2.53125 -6.1875 L 2.53125 -4.546875 L 5.0625 -4.546875 L 5.0625 -3.234375 L 2.53125 -3.234375 L 2.53125 -1.3125 L 5.25 -1.3125 Z M 5.25 0 "/></g></g></g><g fill="#2196f3" fill-opacity="1"><g transform="translate(88.228902, 15.411432)"><g><path d="M 5.21875 -7.484375 L 6.8125 -7.484375 L 4.265625 0 L 2.546875 0 L 0 -7.484375 L 1.609375 -7.484375 L 3.015625 -3.03125 C 3.085938 -2.769531 3.164062 -2.460938 3.25 -2.109375 C 3.332031 -1.765625 3.382812 -1.519531 3.40625 -1.375 C 3.445312 -1.695312 3.578125 -2.25 3.796875 -3.03125 Z M 5.21875 -7.484375 "/></g></g></g><g fill="#2196f3" fill-opacity="1"><g transform="translate(95.039541, 15.411432)"><g><path d="M 0.9375 0 L 0.9375 -7.484375 L 2.53125 -7.484375 L 2.53125 0 Z M 0.9375 0 "/></g></g></g><g fill="#2196f3" fill-opacity="1"><g transform="translate(98.508821, 15.411432)"><g><path d="M 5.359375 -2.078125 C 5.359375 -1.398438 5.113281 -0.863281 4.625 -0.46875 C 4.144531 -0.0820312 3.46875 0.109375 2.59375 0.109375 C 1.800781 0.109375 1.097656 -0.0390625 0.484375 -0.34375 L 0.484375 -1.828125 C 0.984375 -1.597656 1.40625 -1.4375 1.75 -1.34375 C 2.101562 -1.25 2.425781 -1.203125 2.71875 -1.203125 C 3.070312 -1.203125 3.335938 -1.269531 3.515625 -1.40625 C 3.703125 -1.539062 3.796875 -1.738281 3.796875 -2 C 3.796875 -2.144531 3.753906 -2.273438 3.671875 -2.390625 C 3.597656 -2.503906 3.476562 -2.613281 3.3125 -2.71875 C 3.15625 -2.820312 2.832031 -2.992188 2.34375 -3.234375 C 1.882812 -3.441406 1.539062 -3.644531 1.3125 -3.84375 C 1.09375 -4.039062 0.910156 -4.269531 0.765625 -4.53125 C 0.628906 -4.800781 0.5625 -5.113281 0.5625 -5.46875 C 0.5625 -6.125 0.785156 -6.640625 1.234375 -7.015625 C 1.691406 -7.398438 2.316406 -7.59375 3.109375 -7.59375 C 3.492188 -7.59375 3.863281 -7.546875 4.21875 -7.453125 C 4.570312 -7.359375 4.941406 -7.226562 5.328125 -7.0625 L 4.8125 -5.828125 C 4.414062 -5.992188 4.085938 -6.109375 3.828125 -6.171875 C 3.566406 -6.234375 3.304688 -6.265625 3.046875 -6.265625 C 2.742188 -6.265625 2.515625 -6.191406 2.359375 -6.046875 C 2.203125 -5.910156 2.125 -5.734375 2.125 -5.515625 C 2.125 -5.367188 2.15625 -5.242188 2.21875 -5.140625 C 2.28125 -5.035156 2.378906 -4.9375 2.515625 -4.84375 C 2.660156 -4.75 3 -4.578125 3.53125 -4.328125 C 4.226562 -3.984375 4.707031 -3.644531 4.96875 -3.3125 C 5.226562 -2.976562 5.359375 -2.566406 5.359375 -2.078125 Z M 5.359375 -2.078125 "/></g></g></g><g fill="#2196f3" fill-opacity="1"><g transform="translate(104.280721, 15.411432)"><g><path d="M 3.828125 0 L 2.25 0 L 2.25 -6.15625 L 0.203125 -6.15625 L 0.203125 -7.484375 L 5.859375 -7.484375 L 5.859375 -6.15625 L 3.828125 -6.15625 Z M 3.828125 0 "/></g></g></g><g fill="#2196f3" fill-opacity="1"><g transform="translate(110.349403, 15.411432)"><g><path d="M 5.53125 0 L 4.984375 -1.78125 L 2.25 -1.78125 L 1.703125 0 L 0 0 L 2.640625 -7.515625 L 4.578125 -7.515625 L 7.234375 0 Z M 4.609375 -3.109375 C 4.097656 -4.722656 3.8125 -5.632812 3.75 -5.84375 C 3.6875 -6.0625 3.644531 -6.234375 3.625 -6.359375 C 3.507812 -5.921875 3.1875 -4.835938 2.65625 -3.109375 Z M 4.609375 -3.109375 "/></g></g></g><g fill="#939598" fill-opacity="1"><g transform="translate(65.88393, 24.65631)"><g><path d="M 3.125 -1.21875 C 3.125 -0.820312 2.976562 -0.507812 2.6875 -0.28125 C 2.40625 -0.0507812 2.015625 0.0625 1.515625 0.0625 C 1.046875 0.0625 0.632812 -0.0234375 0.28125 -0.203125 L 0.28125 -1.0625 C 0.570312 -0.925781 0.816406 -0.832031 1.015625 -0.78125 C 1.222656 -0.726562 1.414062 -0.703125 1.59375 -0.703125 C 1.789062 -0.703125 1.941406 -0.738281 2.046875 -0.8125 C 2.160156 -0.894531 2.21875 -1.015625 2.21875 -1.171875 C 2.21875 -1.253906 2.191406 -1.328125 2.140625 -1.390625 C 2.097656 -1.460938 2.03125 -1.523438 1.9375 -1.578125 C 1.84375 -1.640625 1.65625 -1.738281 1.375 -1.875 C 1.101562 -2 0.898438 -2.117188 0.765625 -2.234375 C 0.628906 -2.359375 0.519531 -2.492188 0.4375 -2.640625 C 0.363281 -2.796875 0.328125 -2.976562 0.328125 -3.1875 C 0.328125 -3.570312 0.457031 -3.875 0.71875 -4.09375 C 0.976562 -4.3125 1.34375 -4.421875 1.8125 -4.421875 C 2.03125 -4.421875 2.242188 -4.394531 2.453125 -4.34375 C 2.660156 -4.289062 2.878906 -4.210938 3.109375 -4.109375 L 2.796875 -3.390625 C 2.566406 -3.492188 2.375 -3.5625 2.21875 -3.59375 C 2.070312 -3.632812 1.925781 -3.65625 1.78125 -3.65625 C 1.601562 -3.65625 1.46875 -3.613281 1.375 -3.53125 C 1.28125 -3.445312 1.234375 -3.34375 1.234375 -3.21875 C 1.234375 -3.132812 1.25 -3.0625 1.28125 -3 C 1.320312 -2.9375 1.382812 -2.875 1.46875 -2.8125 C 1.550781 -2.757812 1.75 -2.660156 2.0625 -2.515625 C 2.46875 -2.316406 2.742188 -2.117188 2.890625 -1.921875 C 3.046875 -1.734375 3.125 -1.5 3.125 -1.21875 Z M 3.125 -1.21875 "/></g></g></g><g fill="#939598" fill-opacity="1"><g transform="translate(69.250363, 24.65631)"><g><path d="M 1.203125 -1.671875 C 1.203125 -1.335938 1.253906 -1.085938 1.359375 -0.921875 C 1.472656 -0.753906 1.648438 -0.671875 1.890625 -0.671875 C 2.140625 -0.671875 2.316406 -0.753906 2.421875 -0.921875 C 2.523438 -1.085938 2.578125 -1.335938 2.578125 -1.671875 C 2.578125 -2.003906 2.519531 -2.25 2.40625 -2.40625 C 2.300781 -2.570312 2.128906 -2.65625 1.890625 -2.65625 C 1.648438 -2.65625 1.472656 -2.570312 1.359375 -2.40625 C 1.253906 -2.25 1.203125 -2.003906 1.203125 -1.671875 Z M 3.515625 -1.671875 C 3.515625 -1.128906 3.367188 -0.703125 3.078125 -0.390625 C 2.796875 -0.0859375 2.394531 0.0625 1.875 0.0625 C 1.5625 0.0625 1.28125 -0.00390625 1.03125 -0.140625 C 0.789062 -0.285156 0.601562 -0.488281 0.46875 -0.75 C 0.34375 -1.019531 0.28125 -1.328125 0.28125 -1.671875 C 0.28125 -2.210938 0.421875 -2.632812 0.703125 -2.9375 C 0.984375 -3.238281 1.382812 -3.390625 1.90625 -3.390625 C 2.21875 -3.390625 2.492188 -3.320312 2.734375 -3.1875 C 2.984375 -3.050781 3.175781 -2.851562 3.3125 -2.59375 C 3.445312 -2.332031 3.515625 -2.023438 3.515625 -1.671875 Z M 3.515625 -1.671875 "/></g></g></g><g fill="#939598" fill-opacity="1"><g transform="translate(73.034615, 24.65631)"><g><path d="M 1.390625 0 L 0.484375 0 L 0.484375 -4.640625 L 1.390625 -4.640625 Z M 1.390625 0 "/></g></g></g><g fill="#939598" fill-opacity="1"><g transform="translate(74.899883, 24.65631)"><g><path d="M 2.84375 0 L 2.71875 -0.421875 L 2.671875 -0.421875 C 2.578125 -0.265625 2.4375 -0.144531 2.25 -0.0625 C 2.070312 0.0195312 1.867188 0.0625 1.640625 0.0625 C 1.253906 0.0625 0.957031 -0.0390625 0.75 -0.25 C 0.550781 -0.457031 0.453125 -0.757812 0.453125 -1.15625 L 0.453125 -3.328125 L 1.375 -3.328125 L 1.375 -1.390625 C 1.375 -1.148438 1.414062 -0.96875 1.5 -0.84375 C 1.582031 -0.726562 1.71875 -0.671875 1.90625 -0.671875 C 2.15625 -0.671875 2.335938 -0.753906 2.453125 -0.921875 C 2.566406 -1.085938 2.625 -1.367188 2.625 -1.765625 L 2.625 -3.328125 L 3.53125 -3.328125 L 3.53125 0 Z M 2.84375 0 "/></g></g></g><g fill="#939598" fill-opacity="1"><g transform="translate(78.916921, 24.65631)"><g><path d="M 1.828125 0.0625 C 0.796875 0.0625 0.28125 -0.507812 0.28125 -1.65625 C 0.28125 -2.21875 0.421875 -2.644531 0.703125 -2.9375 C 0.984375 -3.238281 1.382812 -3.390625 1.90625 -3.390625 C 2.289062 -3.390625 2.640625 -3.316406 2.953125 -3.171875 L 2.6875 -2.46875 C 2.539062 -2.519531 2.40625 -2.5625 2.28125 -2.59375 C 2.15625 -2.632812 2.03125 -2.65625 1.90625 -2.65625 C 1.4375 -2.65625 1.203125 -2.320312 1.203125 -1.65625 C 1.203125 -1 1.4375 -0.671875 1.90625 -0.671875 C 2.082031 -0.671875 2.242188 -0.691406 2.390625 -0.734375 C 2.546875 -0.785156 2.695312 -0.863281 2.84375 -0.96875 L 2.84375 -0.1875 C 2.695312 -0.09375 2.546875 -0.03125 2.390625 0 C 2.242188 0.0390625 2.054688 0.0625 1.828125 0.0625 Z M 1.828125 0.0625 "/></g></g></g><g fill="#939598" fill-opacity="1"><g transform="translate(82.059523, 24.65631)"><g><path d="M 0.4375 -4.203125 C 0.4375 -4.492188 0.601562 -4.640625 0.9375 -4.640625 C 1.257812 -4.640625 1.421875 -4.492188 1.421875 -4.203125 C 1.421875 -4.054688 1.378906 -3.941406 1.296875 -3.859375 C 1.222656 -3.785156 1.101562 -3.75 0.9375 -3.75 C 0.601562 -3.75 0.4375 -3.898438 0.4375 -4.203125 Z M 1.390625 0 L 0.484375 0 L 0.484375 -3.328125 L 1.390625 -3.328125 Z M 1.390625 0 "/></g></g></g><g fill="#939598" fill-opacity="1"><g transform="translate(83.924791, 24.65631)"><g><path d="M 1.203125 -1.671875 C 1.203125 -1.335938 1.253906 -1.085938 1.359375 -0.921875 C 1.472656 -0.753906 1.648438 -0.671875 1.890625 -0.671875 C 2.140625 -0.671875 2.316406 -0.753906 2.421875 -0.921875 C 2.523438 -1.085938 2.578125 -1.335938 2.578125 -1.671875 C 2.578125 -2.003906 2.519531 -2.25 2.40625 -2.40625 C 2.300781 -2.570312 2.128906 -2.65625 1.890625 -2.65625 C 1.648438 -2.65625 1.472656 -2.570312 1.359375 -2.40625 C 1.253906 -2.25 1.203125 -2.003906 1.203125 -1.671875 Z M 3.515625 -1.671875 C 3.515625 -1.128906 3.367188 -0.703125 3.078125 -0.390625 C 2.796875 -0.0859375 2.394531 0.0625 1.875 0.0625 C 1.5625 0.0625 1.28125 -0.00390625 1.03125 -0.140625 C 0.789062 -0.285156 0.601562 -0.488281 0.46875 -0.75 C 0.34375 -1.019531 0.28125 -1.328125 0.28125 -1.671875 C 0.28125 -2.210938 0.421875 -2.632812 0.703125 -2.9375 C 0.984375 -3.238281 1.382812 -3.390625 1.90625 -3.390625 C 2.21875 -3.390625 2.492188 -3.320312 2.734375 -3.1875 C 2.984375 -3.050781 3.175781 -2.851562 3.3125 -2.59375 C 3.445312 -2.332031 3.515625 -2.023438 3.515625 -1.671875 Z M 1.390625 -3.703125 L 1.390625 -3.78125 C 1.734375 -4.175781 1.96875 -4.476562 2.09375 -4.6875 L 3.125 -4.6875 L 3.125 -4.625 C 3.019531 -4.519531 2.84375 -4.363281 2.59375 -4.15625 C 2.34375 -3.945312 2.144531 -3.796875 2 -3.703125 Z M 1.390625 -3.703125 "/></g></g></g><g fill="#939598" fill-opacity="1"><g transform="translate(87.709043, 24.65631)"><g><path d="M 3.5625 0 L 2.640625 0 L 2.640625 -1.953125 C 2.640625 -2.191406 2.597656 -2.367188 2.515625 -2.484375 C 2.429688 -2.609375 2.296875 -2.671875 2.109375 -2.671875 C 1.859375 -2.671875 1.675781 -2.582031 1.5625 -2.40625 C 1.445312 -2.238281 1.390625 -1.957031 1.390625 -1.5625 L 1.390625 0 L 0.484375 0 L 0.484375 -3.328125 L 1.171875 -3.328125 L 1.296875 -2.90625 L 1.34375 -2.90625 C 1.445312 -3.070312 1.585938 -3.191406 1.765625 -3.265625 C 1.941406 -3.347656 2.144531 -3.390625 2.375 -3.390625 C 2.757812 -3.390625 3.050781 -3.285156 3.25 -3.078125 C 3.457031 -2.867188 3.5625 -2.566406 3.5625 -2.171875 Z M 3.5625 0 "/></g></g></g><g fill="#939598" fill-opacity="1"><g transform="translate(91.726081, 24.65631)"><g/></g></g><g fill="#939598" fill-opacity="1"><g transform="translate(93.313795, 24.65631)"><g><path d="M 3.125 -1.21875 C 3.125 -0.820312 2.976562 -0.507812 2.6875 -0.28125 C 2.40625 -0.0507812 2.015625 0.0625 1.515625 0.0625 C 1.046875 0.0625 0.632812 -0.0234375 0.28125 -0.203125 L 0.28125 -1.0625 C 0.570312 -0.925781 0.816406 -0.832031 1.015625 -0.78125 C 1.222656 -0.726562 1.414062 -0.703125 1.59375 -0.703125 C 1.789062 -0.703125 1.941406 -0.738281 2.046875 -0.8125 C 2.160156 -0.894531 2.21875 -1.015625 2.21875 -1.171875 C 2.21875 -1.253906 2.191406 -1.328125 2.140625 -1.390625 C 2.097656 -1.460938 2.03125 -1.523438 1.9375 -1.578125 C 1.84375 -1.640625 1.65625 -1.738281 1.375 -1.875 C 1.101562 -2 0.898438 -2.117188 0.765625 -2.234375 C 0.628906 -2.359375 0.519531 -2.492188 0.4375 -2.640625 C 0.363281 -2.796875 0.328125 -2.976562 0.328125 -3.1875 C 0.328125 -3.570312 0.457031 -3.875 0.71875 -4.09375 C 0.976562 -4.3125 1.34375 -4.421875 1.8125 -4.421875 C 2.03125 -4.421875 2.242188 -4.394531 2.453125 -4.34375 C 2.660156 -4.289062 2.878906 -4.210938 3.109375 -4.109375 L 2.796875 -3.390625 C 2.566406 -3.492188 2.375 -3.5625 2.21875 -3.59375 C 2.070312 -3.632812 1.925781 -3.65625 1.78125 -3.65625 C 1.601562 -3.65625 1.46875 -3.613281 1.375 -3.53125 C 1.28125 -3.445312 1.234375 -3.34375 1.234375 -3.21875 C 1.234375 -3.132812 1.25 -3.0625 1.28125 -3 C 1.320312 -2.9375 1.382812 -2.875 1.46875 -2.8125 C 1.550781 -2.757812 1.75 -2.660156 2.0625 -2.515625 C 2.46875 -2.316406 2.742188 -2.117188 2.890625 -1.921875 C 3.046875 -1.734375 3.125 -1.5 3.125 -1.21875 Z M 3.125 -1.21875 "/></g></g></g><g fill="#939598" fill-opacity="1"><g transform="translate(96.680228, 24.65631)"><g><path d="M 1.203125 -1.671875 C 1.203125 -1.335938 1.253906 -1.085938 1.359375 -0.921875 C 1.472656 -0.753906 1.648438 -0.671875 1.890625 -0.671875 C 2.140625 -0.671875 2.316406 -0.753906 2.421875 -0.921875 C 2.523438 -1.085938 2.578125 -1.335938 2.578125 -1.671875 C 2.578125 -2.003906 2.519531 -2.25 2.40625 -2.40625 C 2.300781 -2.570312 2.128906 -2.65625 1.890625 -2.65625 C 1.648438 -2.65625 1.472656 -2.570312 1.359375 -2.40625 C 1.253906 -2.25 1.203125 -2.003906 1.203125 -1.671875 Z M 3.515625 -1.671875 C 3.515625 -1.128906 3.367188 -0.703125 3.078125 -0.390625 C 2.796875 -0.0859375 2.394531 0.0625 1.875 0.0625 C 1.5625 0.0625 1.28125 -0.00390625 1.03125 -0.140625 C 0.789062 -0.285156 0.601562 -0.488281 0.46875 -0.75 C 0.34375 -1.019531 0.28125 -1.328125 0.28125 -1.671875 C 0.28125 -2.210938 0.421875 -2.632812 0.703125 -2.9375 C 0.984375 -3.238281 1.382812 -3.390625 1.90625 -3.390625 C 2.21875 -3.390625 2.492188 -3.320312 2.734375 -3.1875 C 2.984375 -3.050781 3.175781 -2.851562 3.3125 -2.59375 C 3.445312 -2.332031 3.515625 -2.023438 3.515625 -1.671875 Z M 1.390625 -3.703125 L 1.390625 -3.78125 C 1.734375 -4.175781 1.96875 -4.476562 2.09375 -4.6875 L 3.125 -4.6875 L 3.125 -4.625 C 3.019531 -4.519531 2.84375 -4.363281 2.59375 -4.15625 C 2.34375 -3.945312 2.144531 -3.796875 2 -3.703125 Z M 1.390625 -3.703125 "/></g></g></g><g fill="#939598" fill-opacity="1"><g transform="translate(100.46448, 24.65631)"><g><path d="M 1.390625 0 L 0.484375 0 L 0.484375 -4.640625 L 1.390625 -4.640625 Z M 1.390625 0 "/></g></g></g><g fill="#939598" fill-opacity="1"><g transform="translate(102.329748, 24.65631)"><g><path d="M 0.4375 -4.203125 C 0.4375 -4.492188 0.601562 -4.640625 0.9375 -4.640625 C 1.257812 -4.640625 1.421875 -4.492188 1.421875 -4.203125 C 1.421875 -4.054688 1.378906 -3.941406 1.296875 -3.859375 C 1.222656 -3.785156 1.101562 -3.75 0.9375 -3.75 C 0.601562 -3.75 0.4375 -3.898438 0.4375 -4.203125 Z M 1.390625 0 L 0.484375 0 L 0.484375 -3.328125 L 1.390625 -3.328125 Z M 1.390625 0 "/></g></g></g><g fill="#939598" fill-opacity="1"><g transform="translate(104.195016, 24.65631)"><g><path d="M 1.53125 0.0625 C 1.144531 0.0625 0.835938 -0.0859375 0.609375 -0.390625 C 0.390625 -0.703125 0.28125 -1.125 0.28125 -1.65625 C 0.28125 -2.207031 0.390625 -2.632812 0.609375 -2.9375 C 0.835938 -3.238281 1.15625 -3.390625 1.5625 -3.390625 C 1.976562 -3.390625 2.296875 -3.226562 2.515625 -2.90625 L 2.546875 -2.90625 C 2.503906 -3.15625 2.484375 -3.378906 2.484375 -3.578125 L 2.484375 -4.640625 L 3.390625 -4.640625 L 3.390625 0 L 2.6875 0 L 2.515625 -0.4375 L 2.484375 -0.4375 C 2.273438 -0.101562 1.957031 0.0625 1.53125 0.0625 Z M 1.859375 -0.671875 C 2.085938 -0.671875 2.253906 -0.738281 2.359375 -0.875 C 2.472656 -1.007812 2.535156 -1.238281 2.546875 -1.5625 L 2.546875 -1.65625 C 2.546875 -2.007812 2.488281 -2.265625 2.375 -2.421875 C 2.257812 -2.578125 2.082031 -2.65625 1.84375 -2.65625 C 1.632812 -2.65625 1.472656 -2.566406 1.359375 -2.390625 C 1.253906 -2.222656 1.203125 -1.976562 1.203125 -1.65625 C 1.203125 -1.320312 1.253906 -1.070312 1.359375 -0.90625 C 1.472656 -0.75 1.640625 -0.671875 1.859375 -0.671875 Z M 1.859375 -0.671875 "/></g></g></g><g fill="#939598" fill-opacity="1"><g transform="translate(108.062832, 24.65631)"><g><path d="M 2.59375 0 L 2.421875 -0.453125 L 2.390625 -0.453125 C 2.242188 -0.265625 2.085938 -0.128906 1.921875 -0.046875 C 1.753906 0.0234375 1.539062 0.0625 1.28125 0.0625 C 0.96875 0.0625 0.71875 -0.0234375 0.53125 -0.203125 C 0.34375 -0.390625 0.25 -0.65625 0.25 -1 C 0.25 -1.351562 0.375 -1.613281 0.625 -1.78125 C 0.875 -1.945312 1.25 -2.039062 1.75 -2.0625 L 2.328125 -2.078125 L 2.328125 -2.21875 C 2.328125 -2.5625 2.15625 -2.734375 1.8125 -2.734375 C 1.539062 -2.734375 1.226562 -2.648438 0.875 -2.484375 L 0.5625 -3.109375 C 0.945312 -3.304688 1.375 -3.40625 1.84375 -3.40625 C 2.289062 -3.40625 2.632812 -3.304688 2.875 -3.109375 C 3.113281 -2.910156 3.234375 -2.613281 3.234375 -2.21875 L 3.234375 0 Z M 2.328125 -1.546875 L 1.96875 -1.53125 C 1.707031 -1.519531 1.507812 -1.472656 1.375 -1.390625 C 1.25 -1.304688 1.1875 -1.171875 1.1875 -0.984375 C 1.1875 -0.734375 1.332031 -0.609375 1.625 -0.609375 C 1.84375 -0.609375 2.015625 -0.664062 2.140625 -0.78125 C 2.265625 -0.90625 2.328125 -1.066406 2.328125 -1.265625 Z M 2.328125 -1.546875 "/></g></g></g></svg>